<svg width="104" height="8" viewBox="0 0 104 8" fill="none" xmlns="http://www.w3.org/2000/svg">
<path fill-rule="evenodd" clip-rule="evenodd" d="M100.172 0.46444L103.354 3.64642C103.549 3.84168 103.549 4.15826 103.354 4.35353L100.172 7.53551C99.9763 7.73077 99.6597 7.73077 99.4645 7.53551C99.2692 7.34025 99.2692 7.02366 99.4645 6.8284L101.793 4.49997H63V3.49997H101.793L99.4645 1.17155C99.2692 0.976284 99.2692 0.659702 99.4645 0.46444C99.6597 0.269178 99.9763 0.269178 100.172 0.46444Z" fill="#303030"/>
<path fill-rule="evenodd" clip-rule="evenodd" d="M3.82843 7.53556L0.646446 4.35358C0.451183 4.15832 0.451183 3.84174 0.646446 3.64647L3.82843 0.464492C4.02369 0.26923 4.34027 0.26923 4.53553 0.464492C4.7308 0.659755 4.7308 0.976337 4.53553 1.1716L2.20711 3.50003L41 3.50003V4.50003L2.20711 4.50003L4.53553 6.82845C4.7308 7.02372 4.7308 7.3403 4.53553 7.53556C4.34027 7.73082 4.02369 7.73082 3.82843 7.53556Z" fill="#303030"/>
</svg>
